<svg id="visual" viewBox="0 0 960 540" width="960" height="540" xmlns="http://www.w3.org/2000/svg" xmlns:xlink="http://www.w3.org/1999/xlink" version="1.1"><rect x="0" y="0" width="960" height="540" fill="#0b0d0f"></rect><defs><linearGradient id="grad1_0" x1="43.8%" y1="100%" x2="100%" y2="0%"><stop offset="14.444444444444446%" stop-color="#0b0d0f" stop-opacity="1"></stop><stop offset="85.55555555555554%" stop-color="#0b0d0f" stop-opacity="1"></stop></linearGradient></defs><defs><linearGradient id="grad2_0" x1="0%" y1="100%" x2="56.3%" y2="0%"><stop offset="14.444444444444446%" stop-color="#0b0d0f" stop-opacity="1"></stop><stop offset="85.55555555555554%" stop-color="#0b0d0f" stop-opacity="1"></stop></linearGradient></defs><g transform="translate(960, 540)"><path d="M-270 0C-243.1 -24.8 -216.2 -49.7 -207.9 -86.1C-199.5 -122.5 -209.6 -170.6 -190.9 -190.9C-172.2 -211.3 -124.6 -203.9 -88 -212.5C-51.4 -221.1 -25.7 -245.5 0 -270L0 0Z" fill="#3c92fa"></path></g><g transform="translate(0, 0)"><path d="M270 0C224.8 19.5 179.6 38.9 169.1 70C158.5 101.1 182.7 143.9 177.5 177.5C172.3 211.1 137.8 235.6 103.3 249.4C68.9 263.3 34.4 266.7 0 270L0 0Z" fill="#3c92fa"></path></g></svg>